<svg width="1470" height="151" viewBox="0 0 1470 151" fill="none" xmlns="http://www.w3.org/2000/svg">
<path d="M33.7131 148H0.758523L50.9716 2.54545H90.6023L140.744 148H107.79L71.3551 35.7841H70.2188L33.7131 148ZM31.6534 90.8267H109.494V114.832H31.6534V90.8267ZM158.251 148V2.54545H215.638C226.67 2.54545 236.069 4.65246 243.834 8.86648C251.599 13.0331 257.518 18.8333 261.589 26.267C265.709 33.6534 267.768 42.1761 267.768 51.8352C267.768 61.4943 265.685 70.017 261.518 77.4034C257.352 84.7898 251.315 90.5426 243.408 94.6619C235.548 98.7812 226.031 100.841 214.857 100.841H178.28V76.196H209.885C215.804 76.196 220.68 75.178 224.516 73.142C228.398 71.0587 231.286 68.1941 233.18 64.5483C235.122 60.8551 236.092 56.6174 236.092 51.8352C236.092 47.0057 235.122 42.7917 233.18 39.1932C231.286 35.5473 228.398 32.7301 224.516 30.7415C220.633 28.7055 215.709 27.6875 209.743 27.6875H189.004V148H158.251ZM287.744 148V2.54545H345.13C356.162 2.54545 365.561 4.65246 373.326 8.86648C381.091 13.0331 387.01 18.8333 391.082 26.267C395.201 33.6534 397.261 42.1761 397.261 51.8352C397.261 61.4943 395.177 70.017 391.011 77.4034C386.844 84.7898 380.807 90.5426 372.9 94.6619C365.04 98.7812 355.523 100.841 344.349 100.841H307.772V76.196H339.377C345.296 76.196 350.173 75.178 354.008 73.142C357.89 71.0587 360.779 68.1941 362.673 64.5483C364.614 60.8551 365.585 56.6174 365.585 51.8352C365.585 47.0057 364.614 42.7917 362.673 39.1932C360.779 35.5473 357.89 32.7301 354.008 30.7415C350.125 28.7055 345.201 27.6875 339.235 27.6875H318.496V148H287.744ZM417.236 148V2.54545H447.989V122.645H510.347V148H417.236ZM561.465 2.54545V148H530.712V2.54545H561.465ZM715.105 53.4688H683.997C683.429 49.4441 682.269 45.8693 680.517 42.7443C678.765 39.572 676.516 36.8731 673.77 34.6477C671.024 32.4223 667.851 30.7178 664.253 29.5341C660.702 28.3504 656.843 27.7585 652.676 27.7585C645.148 27.7585 638.59 29.6288 633.003 33.3693C627.416 37.0625 623.083 42.4602 620.006 49.5625C616.928 56.6174 615.389 65.1875 615.389 75.2727C615.389 85.642 616.928 94.3542 620.006 101.409C623.131 108.464 627.487 113.791 633.074 117.389C638.661 120.988 645.124 122.787 652.463 122.787C656.582 122.787 660.394 122.242 663.898 121.153C667.449 120.064 670.598 118.478 673.344 116.395C676.09 114.264 678.363 111.684 680.162 108.653C682.009 105.623 683.287 102.167 683.997 98.2841L715.105 98.4261C714.3 105.102 712.288 111.542 709.068 117.744C705.896 123.9 701.611 129.416 696.213 134.293C690.863 139.122 684.471 142.957 677.037 145.798C669.651 148.592 661.294 149.989 651.966 149.989C638.992 149.989 627.392 147.053 617.165 141.182C606.985 135.311 598.936 126.812 593.017 115.685C587.146 104.558 584.21 91.0871 584.21 75.2727C584.21 59.411 587.193 45.9167 593.159 34.7898C599.125 23.6629 607.222 15.1875 617.449 9.36364C627.676 3.49242 639.182 0.556813 651.966 0.556813C660.394 0.556813 668.206 1.74053 675.403 4.10795C682.648 6.47538 689.063 9.93181 694.651 14.4773C700.238 18.9754 704.783 24.4915 708.287 31.0256C711.838 37.5597 714.111 45.0407 715.105 53.4688ZM759.494 148H726.54L776.753 2.54545H816.384L866.526 148H833.571L797.136 35.7841H796L759.494 148ZM757.435 90.8267H835.276V114.832H757.435V90.8267ZM860.719 27.9006V2.54545H980.18V27.9006H935.648V148H905.251V27.9006H860.719ZM1030.61 2.54545V148H999.853V2.54545H1030.61ZM1189.57 75.2727C1189.57 91.1345 1186.57 104.629 1180.55 115.756C1174.59 126.883 1166.44 135.382 1156.12 141.253C1145.85 147.077 1134.29 149.989 1121.46 149.989C1108.54 149.989 1096.94 147.053 1086.66 141.182C1076.39 135.311 1068.27 126.812 1062.3 115.685C1056.33 104.558 1053.35 91.0871 1053.35 75.2727C1053.35 59.411 1056.33 45.9167 1062.3 34.7898C1068.27 23.6629 1076.39 15.1875 1086.66 9.36364C1096.94 3.49242 1108.54 0.556813 1121.46 0.556813C1134.29 0.556813 1145.85 3.49242 1156.12 9.36364C1166.44 15.1875 1174.59 23.6629 1180.55 34.7898C1186.57 45.9167 1189.57 59.411 1189.57 75.2727ZM1158.39 75.2727C1158.39 64.9981 1156.85 56.3333 1153.78 49.2784C1150.75 42.2235 1146.46 36.8731 1140.92 33.2273C1135.38 29.5814 1128.9 27.7585 1121.46 27.7585C1114.03 27.7585 1107.54 29.5814 1102 33.2273C1096.46 36.8731 1092.15 42.2235 1089.08 49.2784C1086.04 56.3333 1084.53 64.9981 1084.53 75.2727C1084.53 85.5473 1086.04 94.2121 1089.08 101.267C1092.15 108.322 1096.46 113.672 1102 117.318C1107.54 120.964 1114.03 122.787 1121.46 122.787C1128.9 122.787 1135.38 120.964 1140.92 117.318C1146.46 113.672 1150.75 108.322 1153.78 101.267C1156.85 94.2121 1158.39 85.5473 1158.39 75.2727ZM1334.01 2.54545V148H1307.45L1244.17 56.4517H1243.11V148H1212.35V2.54545H1239.34L1302.13 94.0227H1303.4V2.54545H1334.01ZM1438.33 44.3778C1437.76 38.6487 1435.32 34.1979 1431.01 31.0256C1426.71 27.8532 1420.86 26.267 1413.47 26.267C1408.45 26.267 1404.21 26.9773 1400.76 28.3977C1397.3 29.7708 1394.65 31.6884 1392.8 34.1506C1391 36.6127 1390.11 39.4062 1390.11 42.5312C1390.01 45.1354 1390.55 47.4081 1391.74 49.3494C1392.97 51.2907 1394.65 52.9716 1396.78 54.392C1398.91 55.7651 1401.37 56.9725 1404.17 58.0142C1406.96 59.0085 1409.94 59.8608 1413.12 60.571L1426.18 63.696C1432.53 65.1165 1438.35 67.0104 1443.66 69.3778C1448.96 71.7453 1453.55 74.6572 1457.43 78.1136C1461.32 81.5701 1464.32 85.642 1466.45 90.3295C1468.63 95.017 1469.75 100.391 1469.79 106.452C1469.75 115.353 1467.47 123.071 1462.97 129.605C1458.52 136.092 1452.08 141.134 1443.66 144.733C1435.28 148.284 1425.17 150.06 1413.33 150.06C1401.59 150.06 1391.36 148.26 1382.65 144.662C1373.98 141.063 1367.21 135.737 1362.34 128.682C1357.51 121.58 1354.97 112.796 1354.74 102.332H1384.49C1384.83 107.209 1386.22 111.281 1388.68 114.548C1391.19 117.768 1394.53 120.206 1398.7 121.864C1402.91 123.473 1407.67 124.278 1412.97 124.278C1418.18 124.278 1422.7 123.521 1426.54 122.006C1430.42 120.491 1433.43 118.384 1435.56 115.685C1437.69 112.986 1438.76 109.884 1438.76 106.381C1438.76 103.114 1437.79 100.367 1435.84 98.142C1433.95 95.9167 1431.16 94.0227 1427.46 92.4602C1423.82 90.8977 1419.34 89.4773 1414.04 88.1989L1398.2 84.2216C1385.94 81.2386 1376.26 76.5748 1369.15 70.2301C1362.05 63.8854 1358.52 55.339 1358.57 44.5909C1358.52 35.7841 1360.87 28.09 1365.6 21.5085C1370.38 14.9271 1376.94 9.78977 1385.28 6.09659C1393.61 2.4034 1403.08 0.556813 1413.68 0.556813C1424.48 0.556813 1433.9 2.4034 1441.95 6.09659C1450.05 9.78977 1456.35 14.9271 1460.84 21.5085C1465.34 28.09 1467.66 35.7131 1467.8 44.3778H1438.33Z" fill="black"/>
</svg>
