<svg width="704" height="151" viewBox="0 0 704 151" fill="none" xmlns="http://www.w3.org/2000/svg">
<path d="M12.642 148V2.54545H70.8807C81.5814 2.54545 90.5066 4.13163 97.6562 7.30398C104.806 10.4763 110.18 14.8797 113.778 20.5142C117.377 26.1013 119.176 32.5407 119.176 39.8324C119.176 45.5142 118.04 50.5095 115.767 54.8182C113.494 59.0795 110.369 62.5833 106.392 65.3295C102.462 68.0284 97.964 69.946 92.8977 71.0824V72.5028C98.4375 72.7396 103.622 74.3021 108.452 77.1903C113.329 80.0786 117.282 84.1269 120.312 89.3352C123.343 94.4962 124.858 100.652 124.858 107.801C124.858 115.519 122.94 122.408 119.105 128.469C115.317 134.482 109.706 139.241 102.273 142.744C94.839 146.248 85.6771 148 74.7869 148H12.642ZM43.3949 122.858H68.4659C77.036 122.858 83.286 121.224 87.2159 117.957C91.1458 114.643 93.1108 110.24 93.1108 104.747C93.1108 100.723 92.1402 97.1714 90.1989 94.0938C88.2576 91.0161 85.4877 88.6013 81.8892 86.8494C78.3381 85.0975 74.1004 84.2216 69.1761 84.2216H43.3949V122.858ZM43.3949 63.4119H66.1932C70.4072 63.4119 74.1477 62.678 77.4148 61.2102C80.7292 59.6951 83.3333 57.5644 85.2273 54.8182C87.1686 52.072 88.1392 48.7812 88.1392 44.946C88.1392 39.6903 86.2689 35.4527 82.5284 32.233C78.8352 29.0133 73.5795 27.4034 66.7614 27.4034H43.3949V63.4119Z" fill="black"/>
<path d="M175.713 148H142.759L192.972 2.54545H232.602L282.744 148H249.79L213.355 35.7841H212.219L175.713 148ZM173.653 90.8267H251.494V114.832H173.653V90.8267Z" fill="black"/>
<path d="M384.548 44.3778C383.98 38.6487 381.542 34.1979 377.233 31.0256C372.924 27.8532 367.077 26.267 359.69 26.267C354.671 26.267 350.434 26.9773 346.977 28.3977C343.521 29.7708 340.869 31.6884 339.023 34.1506C337.223 36.6127 336.324 39.4062 336.324 42.5312C336.229 45.1354 336.774 47.4081 337.957 49.3494C339.188 51.2907 340.869 52.9716 343 54.392C345.131 55.7651 347.593 56.9725 350.386 58.0142C353.18 59.0085 356.163 59.8608 359.335 60.571L372.403 63.696C378.748 65.1165 384.572 67.0104 389.875 69.3778C395.178 71.7453 399.771 74.6572 403.653 78.1136C407.536 81.5701 410.543 85.642 412.673 90.3295C414.851 95.017 415.964 100.391 416.011 106.452C415.964 115.353 413.691 123.071 409.193 129.605C404.742 136.092 398.303 141.134 389.875 144.733C381.494 148.284 371.385 150.06 359.548 150.06C347.806 150.06 337.579 148.26 328.866 144.662C320.202 141.063 313.431 135.737 308.554 128.682C303.724 121.58 301.191 112.796 300.955 102.332H330.713C331.045 107.209 332.441 111.281 334.903 114.548C337.413 117.768 340.751 120.206 344.918 121.864C349.132 123.473 353.89 124.278 359.193 124.278C364.402 124.278 368.923 123.521 372.759 122.006C376.641 120.491 379.648 118.384 381.778 115.685C383.909 112.986 384.974 109.884 384.974 106.381C384.974 103.114 384.004 100.367 382.062 98.142C380.169 95.9167 377.375 94.0227 373.682 92.4602C370.036 90.8977 365.562 89.4773 360.259 88.1989L344.42 84.2216C332.157 81.2386 322.474 76.5748 315.372 70.2301C308.27 63.8854 304.742 55.339 304.79 44.5909C304.742 35.7841 307.086 28.09 311.821 21.5085C316.603 14.9271 323.161 9.78977 331.494 6.09659C339.828 2.4034 349.297 0.556813 359.903 0.556813C370.699 0.556813 380.121 2.4034 388.17 6.09659C396.267 9.78977 402.564 14.9271 407.062 21.5085C411.561 28.09 413.881 35.7131 414.023 44.3778H384.548Z" fill="black"/>
<path d="M442.642 148V2.54545H540.653V27.9006H473.395V62.5597H535.611V87.9148H473.395V122.645H540.938V148H442.642Z" fill="black"/>
<path d="M622.205 148H570.642V2.54545H622.631C637.261 2.54545 649.856 5.45738 660.415 11.2812C670.973 17.0578 679.094 25.3674 684.776 36.2102C690.505 47.053 693.369 60.0265 693.369 75.1307C693.369 90.2822 690.505 103.303 684.776 114.193C679.094 125.083 670.926 133.44 660.273 139.264C649.667 145.088 636.977 148 622.205 148ZM601.395 121.651H620.926C630.017 121.651 637.664 120.041 643.866 116.821C650.116 113.554 654.804 108.511 657.929 101.693C661.101 94.8277 662.688 85.9735 662.688 75.1307C662.688 64.3826 661.101 55.5994 657.929 48.7812C654.804 41.9631 650.14 36.9441 643.938 33.7244C637.735 30.5047 630.088 28.8949 620.997 28.8949H601.395V121.651Z" fill="black"/>
</svg>
