<svg width="124" height="146" viewBox="0 0 124 146" fill="none" xmlns="http://www.w3.org/2000/svg">
<path d="M52.2045 146H0.642045V0.54545H52.6307C67.2614 0.54545 79.8561 3.45738 90.4148 9.28125C100.973 15.0578 109.094 23.3674 114.776 34.2102C120.505 45.053 123.369 58.0265 123.369 73.1307C123.369 88.2822 120.505 101.303 114.776 112.193C109.094 123.083 100.926 131.44 90.2727 137.264C79.6667 143.088 66.9773 146 52.2045 146ZM31.3949 119.651H50.9261C60.017 119.651 67.6638 118.041 73.8665 114.821C80.1165 111.554 84.804 106.511 87.929 99.6932C91.1013 92.8277 92.6875 83.9735 92.6875 73.1307C92.6875 62.3826 91.1013 53.5994 87.929 46.7812C84.804 39.9631 80.1402 34.9441 73.9375 31.7244C67.7348 28.5047 60.0881 26.8949 50.9972 26.8949H31.3949V119.651Z" fill="currentColor"/>
</svg>
