<svg width="113" height="146" viewBox="0 0 113 146" fill="none" xmlns="http://www.w3.org/2000/svg">
<path d="M0.642045 146V0.54545H58.8807C69.5814 0.54545 78.5066 2.13163 85.6562 5.30398C92.8059 8.47633 98.1799 12.8797 101.778 18.5142C105.377 24.1013 107.176 30.5407 107.176 37.8324C107.176 43.5142 106.04 48.5095 103.767 52.8182C101.494 57.0795 98.3693 60.5833 94.392 63.3295C90.4621 66.0284 85.964 67.946 80.8977 69.0824V70.5028C86.4375 70.7396 91.6222 72.3021 96.4517 75.1903C101.329 78.0786 105.282 82.1269 108.312 87.3352C111.343 92.4962 112.858 98.6515 112.858 105.801C112.858 113.519 110.94 120.408 107.105 126.469C103.317 132.482 97.7064 137.241 90.2727 140.744C82.839 144.248 73.6771 146 62.7869 146H0.642045ZM31.3949 120.858H56.4659C65.036 120.858 71.286 119.224 75.2159 115.957C79.1458 112.643 81.1108 108.24 81.1108 102.747C81.1108 98.7225 80.1402 95.1714 78.1989 92.0938C76.2576 89.0161 73.4877 86.6013 69.8892 84.8494C66.3381 83.0975 62.1004 82.2216 57.1761 82.2216H31.3949V120.858ZM31.3949 61.4119H54.1932C58.4072 61.4119 62.1477 60.678 65.4148 59.2102C68.7292 57.6951 71.3333 55.5644 73.2273 52.8182C75.1686 50.072 76.1392 46.7812 76.1392 42.946C76.1392 37.6903 74.2689 33.4527 70.5284 30.233C66.8352 27.0133 61.5795 25.4034 54.7614 25.4034H31.3949V61.4119Z" fill="currentColor"/>
</svg>
