<svg width="684" height="151" viewBox="0 0 684 151" fill="none" xmlns="http://www.w3.org/2000/svg">
<path d="M12.642 148V2.54545H70.8807C81.5814 2.54545 90.5066 4.13163 97.6562 7.30398C104.806 10.4763 110.18 14.8797 113.778 20.5142C117.377 26.1013 119.176 32.5407 119.176 39.8324C119.176 45.5142 118.04 50.5095 115.767 54.8182C113.494 59.0795 110.369 62.5833 106.392 65.3295C102.462 68.0284 97.964 69.946 92.8977 71.0824V72.5028C98.4375 72.7396 103.622 74.3021 108.452 77.1903C113.329 80.0786 117.282 84.1269 120.312 89.3352C123.343 94.4962 124.858 100.652 124.858 107.801C124.858 115.519 122.94 122.408 119.105 128.469C115.317 134.482 109.706 139.241 102.273 142.744C94.839 146.248 85.6771 148 74.7869 148H12.642ZM43.3949 122.858H68.4659C77.036 122.858 83.286 121.224 87.2159 117.957C91.1458 114.643 93.1108 110.24 93.1108 104.747C93.1108 100.723 92.1402 97.1714 90.1989 94.0938C88.2576 91.0161 85.4877 88.6013 81.8892 86.8494C78.3381 85.0975 74.1004 84.2216 69.1761 84.2216H43.3949V122.858ZM43.3949 63.4119H66.1932C70.4072 63.4119 74.1477 62.678 77.4148 61.2102C80.7292 59.6951 83.3333 57.5644 85.2273 54.8182C87.1686 52.072 88.1392 48.7812 88.1392 44.946C88.1392 39.6903 86.2689 35.4527 82.5284 32.233C78.8352 29.0133 73.5795 27.4034 66.7614 27.4034H43.3949V63.4119Z" fill="black"/>
<path d="M170.713 148H137.759L187.972 2.54545H227.602L277.744 148H244.79L208.355 35.7841H207.219L170.713 148ZM168.653 90.8267H246.494V114.832H168.653V90.8267Z" fill="black"/>
<path d="M374.548 44.3778C373.98 38.6487 371.542 34.1979 367.233 31.0256C362.924 27.8532 357.077 26.267 349.69 26.267C344.671 26.267 340.434 26.9773 336.977 28.3977C333.521 29.7708 330.869 31.6884 329.023 34.1506C327.223 36.6127 326.324 39.4062 326.324 42.5312C326.229 45.1354 326.774 47.4081 327.957 49.3494C329.188 51.2907 330.869 52.9716 333 54.392C335.131 55.7651 337.593 56.9725 340.386 58.0142C343.18 59.0085 346.163 59.8608 349.335 60.571L362.403 63.696C368.748 65.1165 374.572 67.0104 379.875 69.3778C385.178 71.7453 389.771 74.6572 393.653 78.1136C397.536 81.5701 400.543 85.642 402.673 90.3295C404.851 95.017 405.964 100.391 406.011 106.452C405.964 115.353 403.691 123.071 399.193 129.605C394.742 136.092 388.303 141.134 379.875 144.733C371.494 148.284 361.385 150.06 349.548 150.06C337.806 150.06 327.579 148.26 318.866 144.662C310.202 141.063 303.431 135.737 298.554 128.682C293.724 121.58 291.191 112.796 290.955 102.332H320.713C321.045 107.209 322.441 111.281 324.903 114.548C327.413 117.768 330.751 120.206 334.918 121.864C339.132 123.473 343.89 124.278 349.193 124.278C354.402 124.278 358.923 123.521 362.759 122.006C366.641 120.491 369.648 118.384 371.778 115.685C373.909 112.986 374.974 109.884 374.974 106.381C374.974 103.114 374.004 100.367 372.062 98.142C370.169 95.9167 367.375 94.0227 363.682 92.4602C360.036 90.8977 355.562 89.4773 350.259 88.1989L334.42 84.2216C322.157 81.2386 312.474 76.5748 305.372 70.2301C298.27 63.8854 294.742 55.339 294.79 44.5909C294.742 35.7841 297.086 28.09 301.821 21.5085C306.603 14.9271 313.161 9.78977 321.494 6.09659C329.828 2.4034 339.297 0.556813 349.903 0.556813C360.699 0.556813 370.121 2.4034 378.17 6.09659C386.267 9.78977 392.564 14.9271 397.062 21.5085C401.561 28.09 403.881 35.7131 404.023 44.3778H374.548Z" fill="black"/>
<path d="M427.642 148V2.54545H525.653V27.9006H458.395V62.5597H520.611V87.9148H458.395V122.645H525.938V148H427.642Z" fill="black"/>
<path d="M602.205 148H550.642V2.54545H602.631C617.261 2.54545 629.856 5.45738 640.415 11.2812C650.973 17.0578 659.094 25.3674 664.776 36.2102C670.505 47.053 673.369 60.0265 673.369 75.1307C673.369 90.2822 670.505 103.303 664.776 114.193C659.094 125.083 650.926 133.44 640.273 139.264C629.667 145.088 616.977 148 602.205 148ZM581.395 121.651H600.926C610.017 121.651 617.664 120.041 623.866 116.821C630.116 113.554 634.804 108.511 637.929 101.693C641.101 94.8277 642.688 85.9735 642.688 75.1307C642.688 64.3826 641.101 55.5994 637.929 48.7812C634.804 41.9631 630.14 36.9441 623.938 33.7244C617.735 30.5047 610.088 28.8949 600.997 28.8949H581.395V121.651Z" fill="black"/>
</svg>
