<svg width="1084" height="151" viewBox="0 0 1084 151" fill="none" xmlns="http://www.w3.org/2000/svg">
<path d="M31.3949 2.54545V148H0.642045V2.54545H31.3949ZM108.259 148H56.6967V2.54545H108.685C123.316 2.54545 135.911 5.45738 146.469 11.2812C157.028 17.0578 165.148 25.3674 170.83 36.2102C176.559 47.053 179.424 60.0265 179.424 75.1307C179.424 90.2822 176.559 103.303 170.83 114.193C165.148 125.083 156.981 133.44 146.327 139.264C135.721 145.088 123.032 148 108.259 148ZM87.4496 121.651H106.981C116.072 121.651 123.719 120.041 129.921 116.821C136.171 113.554 140.859 108.511 143.984 101.693C147.156 94.8277 148.742 85.9735 148.742 75.1307C148.742 64.3826 147.156 55.5994 143.984 48.7812C140.859 41.9631 136.195 36.9441 129.992 33.7244C123.79 30.5047 116.143 28.8949 107.052 28.8949H87.4496V121.651ZM202.205 148V2.54545H300.216V27.9006H232.957V62.5597H295.173V87.9148H232.957V122.645H300.5V148H202.205ZM446.327 2.54545V148H419.765L356.484 56.4517H355.418V148H324.665V2.54545H351.654L414.438 94.0227H415.717V2.54545H446.327ZM466.196 27.9006V2.54545H585.656V27.9006H541.125V148H510.727V27.9006H466.196ZM636.082 2.54545V148H605.33V2.54545H636.082ZM655.844 27.9006V2.54545H775.305V27.9006H730.773V148H700.376V27.9006H655.844ZM825.731 2.54545V148H794.978V2.54545H825.731ZM851.033 148V2.54545H949.044V27.9006H881.786V62.5597H944.001V87.9148H881.786V122.645H949.328V148H851.033ZM1052.4 44.3778C1051.83 38.6487 1049.39 34.1979 1045.08 31.0256C1040.78 27.8532 1034.93 26.267 1027.54 26.267C1022.52 26.267 1018.29 26.9773 1014.83 28.3977C1011.37 29.7708 1008.72 31.6884 1006.87 34.1506C1005.08 36.6127 1004.18 39.4062 1004.18 42.5312C1004.08 45.1354 1004.63 47.4081 1005.81 49.3494C1007.04 51.2907 1008.72 52.9716 1010.85 54.392C1012.98 55.7651 1015.44 56.9725 1018.24 58.0142C1021.03 59.0085 1024.01 59.8608 1027.19 60.571L1040.25 63.696C1046.6 65.1165 1052.42 67.0104 1057.73 69.3778C1063.03 71.7453 1067.62 74.6572 1071.5 78.1136C1075.39 81.5701 1078.39 85.642 1080.52 90.3295C1082.7 95.017 1083.82 100.391 1083.86 106.452C1083.82 115.353 1081.54 123.071 1077.04 129.605C1072.59 136.092 1066.15 141.134 1057.73 144.733C1049.35 148.284 1039.24 150.06 1027.4 150.06C1015.66 150.06 1005.43 148.26 996.718 144.662C988.053 141.063 981.282 135.737 976.406 128.682C971.576 121.58 969.043 112.796 968.806 102.332H998.565C998.896 107.209 1000.29 111.281 1002.75 114.548C1005.26 117.768 1008.6 120.206 1012.77 121.864C1016.98 123.473 1021.74 124.278 1027.04 124.278C1032.25 124.278 1036.77 123.521 1040.61 122.006C1044.49 120.491 1047.5 118.384 1049.63 115.685C1051.76 112.986 1052.83 109.884 1052.83 106.381C1052.83 103.114 1051.86 100.367 1049.91 98.142C1048.02 95.9167 1045.23 94.0227 1041.53 92.4602C1037.89 90.8977 1033.41 89.4773 1028.11 88.1989L1012.27 84.2216C1000.01 81.2386 990.326 76.5748 983.224 70.2301C976.121 63.8854 972.594 55.339 972.641 44.5909C972.594 35.7841 974.938 28.09 979.673 21.5085C984.455 14.9271 991.013 9.78977 999.346 6.09659C1007.68 2.4034 1017.15 0.556813 1027.75 0.556813C1038.55 0.556813 1047.97 2.4034 1056.02 6.09659C1064.12 9.78977 1070.42 14.9271 1074.91 21.5085C1079.41 28.09 1081.73 35.7131 1081.87 44.3778H1052.4Z" fill="black"/>
</svg>
