<svg width="137" height="150" viewBox="0 0 137 150" fill="none" xmlns="http://www.w3.org/2000/svg">
<path d="M136.307 75.2727C136.307 91.1345 133.3 104.629 127.287 115.756C121.321 126.883 113.177 135.382 102.855 141.253C92.5805 147.077 81.0275 149.989 68.196 149.989C55.2699 149.989 43.6695 147.053 33.3949 141.182C23.1203 135.311 15 126.812 9.03409 115.685C3.06818 104.558 0.0852273 91.0871 0.0852273 75.2727C0.0852273 59.411 3.06818 45.9167 9.03409 34.7898C15 23.6629 23.1203 15.1875 33.3949 9.36364C43.6695 3.49242 55.2699 0.556813 68.196 0.556813C81.0275 0.556813 92.5805 3.49242 102.855 9.36364C113.177 15.1875 121.321 23.6629 127.287 34.7898C133.3 45.9167 136.307 59.411 136.307 75.2727ZM105.128 75.2727C105.128 64.9981 103.589 56.3333 100.511 49.2784C97.4811 42.2235 93.196 36.8731 87.6562 33.2273C82.1165 29.5814 75.6297 27.7585 68.196 27.7585C60.7623 27.7585 54.2756 29.5814 48.7358 33.2273C43.196 36.8731 38.8873 42.2235 35.8097 49.2784C32.7794 56.3333 31.2642 64.9981 31.2642 75.2727C31.2642 85.5473 32.7794 94.2121 35.8097 101.267C38.8873 108.322 43.196 113.672 48.7358 117.318C54.2756 120.964 60.7623 122.787 68.196 122.787C75.6297 122.787 82.1165 120.964 87.6562 117.318C93.196 113.672 97.4811 108.322 100.511 101.267C103.589 94.2121 105.128 85.5473 105.128 75.2727Z" fill="black"/>
</svg>
