<svg width="116" height="146" viewBox="0 0 116 146" fill="none" xmlns="http://www.w3.org/2000/svg">
<path d="M0.642045 146V0.54545H58.0284C69.0133 0.54545 78.3883 2.51041 86.1534 6.44034C93.9659 10.3229 99.9081 15.839 103.98 22.9886C108.099 30.0909 110.159 38.4479 110.159 48.0597C110.159 57.7187 108.076 66.0284 103.909 72.9886C99.7424 79.9015 93.7055 85.2045 85.7983 88.8977C77.9384 92.5909 68.4214 94.4375 57.2472 94.4375H18.8239V69.7216H52.2756C58.1468 69.7216 63.0237 68.9167 66.9062 67.3068C70.7888 65.697 73.6771 63.2822 75.571 60.0625C77.5123 56.8428 78.483 52.8419 78.483 48.0597C78.483 43.2301 77.5123 39.1581 75.571 35.8438C73.6771 32.5294 70.7652 30.0199 66.8352 28.3153C62.9527 26.5634 58.0521 25.6875 52.1335 25.6875H31.3949V146H0.642045ZM79.1932 79.8068L115.344 146H81.3949L46.0256 79.8068H79.1932Z" fill="black"/>
</svg>
