<svg width="117" height="151" viewBox="0 0 117 151" fill="none" xmlns="http://www.w3.org/2000/svg">
<path d="M84.5483 44.3778C83.9801 38.6487 81.5417 34.1979 77.233 31.0256C72.9242 27.8532 67.0767 26.267 59.6903 26.267C54.6714 26.267 50.4337 26.9773 46.9773 28.3977C43.5208 29.7708 40.8693 31.6884 39.0227 34.1506C37.2235 36.6127 36.3239 39.4062 36.3239 42.5312C36.2292 45.1354 36.7737 47.4081 37.9574 49.3494C39.1884 51.2907 40.8693 52.9716 43 54.392C45.1307 55.7651 47.5928 56.9725 50.3864 58.0142C53.1799 59.0085 56.1629 59.8608 59.3352 60.571L72.4034 63.696C78.7481 65.1165 84.572 67.0104 89.875 69.3778C95.178 71.7453 99.7708 74.6572 103.653 78.1136C107.536 81.5701 110.543 85.642 112.673 90.3295C114.851 95.017 115.964 100.391 116.011 106.452C115.964 115.353 113.691 123.071 109.193 129.605C104.742 136.092 98.303 141.134 89.875 144.733C81.4943 148.284 71.3854 150.06 59.5483 150.06C47.8059 150.06 37.5786 148.26 28.8665 144.662C20.2017 141.063 13.4309 135.737 8.55398 128.682C3.72443 121.58 1.19129 112.796 0.954545 102.332H30.7131C31.0445 107.209 32.4413 111.281 34.9034 114.548C37.4129 117.768 40.7509 120.206 44.9176 121.864C49.1316 123.473 53.8902 124.278 59.1932 124.278C64.4015 124.278 68.9233 123.521 72.7585 122.006C76.6411 120.491 79.6477 118.384 81.7784 115.685C83.9091 112.986 84.9744 109.884 84.9744 106.381C84.9744 103.114 84.0038 100.367 82.0625 98.142C80.1686 95.9167 77.375 94.0227 73.6818 92.4602C70.036 90.8977 65.5616 89.4773 60.2585 88.1989L44.4205 84.2216C32.1572 81.2386 22.4744 76.5748 15.3722 70.2301C8.26989 63.8854 4.74242 55.339 4.78977 44.5909C4.74242 35.7841 7.08617 28.09 11.821 21.5085C16.6032 14.9271 23.161 9.78977 31.4943 6.09659C39.8277 2.4034 49.2973 0.556813 59.9034 0.556813C70.6989 0.556813 80.1212 2.4034 88.1705 6.09659C96.2671 9.78977 102.564 14.9271 107.062 21.5085C111.561 28.09 113.881 35.7131 114.023 44.3778H84.5483Z" fill="currentColor"/>
</svg>
