<svg width="827" height="151" viewBox="0 0 827 151" fill="none" xmlns="http://www.w3.org/2000/svg">
<path d="M84.5483 44.3778C83.9801 38.6487 81.5417 34.1979 77.233 31.0256C72.9242 27.8532 67.0767 26.267 59.6903 26.267C54.6714 26.267 50.4337 26.9773 46.9773 28.3977C43.5208 29.7708 40.8693 31.6884 39.0227 34.1506C37.2235 36.6127 36.3239 39.4062 36.3239 42.5312C36.2292 45.1354 36.7737 47.4081 37.9574 49.3494C39.1884 51.2907 40.8693 52.9716 43 54.392C45.1307 55.7651 47.5928 56.9725 50.3864 58.0142C53.1799 59.0085 56.1629 59.8608 59.3352 60.571L72.4034 63.696C78.7481 65.1165 84.572 67.0104 89.875 69.3778C95.178 71.7453 99.7708 74.6572 103.653 78.1136C107.536 81.5701 110.543 85.642 112.673 90.3295C114.851 95.017 115.964 100.391 116.011 106.452C115.964 115.353 113.691 123.071 109.193 129.605C104.742 136.092 98.303 141.134 89.875 144.733C81.4943 148.284 71.3854 150.06 59.5483 150.06C47.8059 150.06 37.5786 148.26 28.8665 144.662C20.2017 141.063 13.4309 135.737 8.55398 128.682C3.72443 121.58 1.19129 112.796 0.954545 102.332H30.7131C31.0445 107.209 32.4413 111.281 34.9034 114.548C37.4129 117.768 40.7509 120.206 44.9176 121.864C49.1316 123.473 53.8902 124.278 59.1932 124.278C64.4015 124.278 68.9233 123.521 72.7585 122.006C76.6411 120.491 79.6477 118.384 81.7784 115.685C83.9091 112.986 84.9744 109.884 84.9744 106.381C84.9744 103.114 84.0038 100.367 82.0625 98.142C80.1686 95.9167 77.375 94.0227 73.6818 92.4602C70.036 90.8977 65.5616 89.4773 60.2585 88.1989L44.4205 84.2216C32.1572 81.2386 22.4744 76.5748 15.3722 70.2301C8.26989 63.8854 4.74242 55.339 4.78977 44.5909C4.74242 35.7841 7.08617 28.09 11.821 21.5085C16.6032 14.9271 23.161 9.78977 31.4943 6.09659C39.8277 2.4034 49.2973 0.556813 59.9034 0.556813C70.6989 0.556813 80.1212 2.4034 88.1705 6.09659C96.2671 9.78977 102.564 14.9271 107.062 21.5085C111.561 28.09 113.881 35.7131 114.023 44.3778H84.5483ZM128.174 2.54545H162.62L195.788 65.1875H197.208L230.376 2.54545H264.822L211.768 96.5795V148H181.228V96.5795L128.174 2.54545ZM360.525 44.3778C359.957 38.6487 357.518 34.1979 353.21 31.0256C348.901 27.8532 343.053 26.267 335.667 26.267C330.648 26.267 326.41 26.9773 322.954 28.3977C319.497 29.7708 316.846 31.6884 314.999 34.1506C313.2 36.6127 312.3 39.4062 312.3 42.5312C312.206 45.1354 312.75 47.4081 313.934 49.3494C315.165 51.2907 316.846 52.9716 318.977 54.392C321.107 55.7651 323.569 56.9725 326.363 58.0142C329.156 59.0085 332.139 59.8608 335.312 60.571L348.38 63.696C354.725 65.1165 360.549 67.0104 365.852 69.3778C371.155 71.7453 375.747 74.6572 379.63 78.1136C383.513 81.5701 386.519 85.642 388.65 90.3295C390.828 95.017 391.941 100.391 391.988 106.452C391.941 115.353 389.668 123.071 385.17 129.605C380.719 136.092 374.28 141.134 365.852 144.733C357.471 148.284 347.362 150.06 335.525 150.06C323.782 150.06 313.555 148.26 304.843 144.662C296.178 141.063 289.407 135.737 284.531 128.682C279.701 121.58 277.168 112.796 276.931 102.332H306.69C307.021 107.209 308.418 111.281 310.88 114.548C313.389 117.768 316.728 120.206 320.894 121.864C325.108 123.473 329.867 124.278 335.17 124.278C340.378 124.278 344.9 123.521 348.735 122.006C352.618 120.491 355.624 118.384 357.755 115.685C359.886 112.986 360.951 109.884 360.951 106.381C360.951 103.114 359.98 100.367 358.039 98.142C356.145 95.9167 353.352 94.0227 349.658 92.4602C346.013 90.8977 341.538 89.4773 336.235 88.1989L320.397 84.2216C308.134 81.2386 298.451 76.5748 291.349 70.2301C284.246 63.8854 280.719 55.339 280.766 44.5909C280.719 35.7841 283.063 28.09 287.798 21.5085C292.58 14.9271 299.138 9.78977 307.471 6.09659C315.804 2.4034 325.274 0.556813 335.88 0.556813C346.675 0.556813 356.098 2.4034 364.147 6.09659C372.244 9.78977 378.541 14.9271 383.039 21.5085C387.537 28.09 389.857 35.7131 389.999 44.3778H360.525ZM407.134 27.9006V2.54545H526.594V27.9006H482.062V148H451.665V27.9006H407.134ZM546.267 148V2.54545H644.278V27.9006H577.02V62.5597H639.236V87.9148H577.02V122.645H644.562V148H546.267ZM668.728 2.54545H706.654L746.711 100.273H748.415L788.472 2.54545H826.398V148H796.569V53.3267H795.362L757.719 147.29H737.407L699.765 52.9716H698.558V148H668.728V2.54545Z" fill="black"/>
</svg>
