<svg width="635" height="150" viewBox="0 0 635 150" fill="none" xmlns="http://www.w3.org/2000/svg">
<path d="M45.3835 148L3.7642 2.54545H37.358L61.4347 103.611H62.642L89.2045 2.54545H117.969L144.46 103.824H145.739L169.815 2.54545H203.409L161.79 148H131.818L104.119 52.9006H102.983L75.3551 148H45.3835Z" fill="black"/>
<path d="M354.307 75.2727C354.307 91.1345 351.3 104.629 345.287 115.756C339.321 126.883 331.177 135.382 320.855 141.253C310.58 147.077 299.027 149.989 286.196 149.989C273.27 149.989 261.67 147.053 251.395 141.182C241.12 135.311 233 126.812 227.034 115.685C221.068 104.558 218.085 91.0871 218.085 75.2727C218.085 59.411 221.068 45.9167 227.034 34.7898C233 23.6629 241.12 15.1875 251.395 9.36364C261.67 3.49242 273.27 0.556813 286.196 0.556813C299.027 0.556813 310.58 3.49242 320.855 9.36364C331.177 15.1875 339.321 23.6629 345.287 34.7898C351.3 45.9167 354.307 59.411 354.307 75.2727ZM323.128 75.2727C323.128 64.9981 321.589 56.3333 318.511 49.2784C315.481 42.2235 311.196 36.8731 305.656 33.2273C300.116 29.5814 293.63 27.7585 286.196 27.7585C278.762 27.7585 272.276 29.5814 266.736 33.2273C261.196 36.8731 256.887 42.2235 253.81 49.2784C250.779 56.3333 249.264 64.9981 249.264 75.2727C249.264 85.5473 250.779 94.2121 253.81 101.267C256.887 108.322 261.196 113.672 266.736 117.318C272.276 120.964 278.762 122.787 286.196 122.787C293.63 122.787 300.116 120.964 305.656 117.318C311.196 113.672 315.481 108.322 318.511 101.267C321.589 94.2121 323.128 85.5473 323.128 75.2727Z" fill="black"/>
<path d="M377.642 148V2.54545H435.028C446.013 2.54545 455.388 4.51041 463.153 8.44034C470.966 12.3229 476.908 17.839 480.98 24.9886C485.099 32.0909 487.159 40.4479 487.159 50.0597C487.159 59.7187 485.076 68.0284 480.909 74.9886C476.742 81.9015 470.705 87.2045 462.798 90.8977C454.938 94.5909 445.421 96.4375 434.247 96.4375H395.824V71.7216H429.276C435.147 71.7216 440.024 70.9167 443.906 69.3068C447.789 67.697 450.677 65.2822 452.571 62.0625C454.512 58.8428 455.483 54.8419 455.483 50.0597C455.483 45.2301 454.512 41.1581 452.571 37.8438C450.677 34.5294 447.765 32.0199 443.835 30.3153C439.953 28.5634 435.052 27.6875 429.134 27.6875H408.395V148H377.642ZM456.193 81.8068L492.344 148H458.395L423.026 81.8068H456.193Z" fill="black"/>
<path d="M509.642 148V2.54545H540.395V66.679H542.312L594.656 2.54545H631.517L577.54 67.6733L632.156 148H595.366L555.523 88.1989L540.395 106.665V148H509.642Z" fill="black"/>
</svg>
